<svg xmlns="http://www.w3.org/2000/svg" viewBox="0 0 760 420" width="760" height="420" role="img" aria-label="Turn time through the run">
<title>Turn time through the run</title>
<rect width="760" height="420" fill="#FFFFFF"/>
<text x="24" y="34" font-family="Helvetica Neue,Helvetica,Arial,DejaVu Sans,sans-serif" font-size="18" font-weight="600" fill="#1F2328">Turn time through the run</text>
<text x="24" y="56" font-family="Helvetica Neue,Helvetica,Arial,DejaVu Sans,sans-serif" font-size="12.5" fill="#57606A">Each run stretched from its first turn to its last, so runs of different lengths line up. Lower is faster.</text>
<line x1="84" y1="346.0" x2="736" y2="346.0" stroke="#D8DEE4"/>
<text x="76" y="350.0" font-family="Helvetica Neue,Helvetica,Arial,DejaVu Sans,sans-serif" font-size="11" fill="#57606A" text-anchor="end">0.0000 s</text>
<line x1="84" y1="292.0" x2="736" y2="292.0" stroke="#D8DEE4"/>
<text x="76" y="296.0" font-family="Helvetica Neue,Helvetica,Arial,DejaVu Sans,sans-serif" font-size="11" fill="#57606A" text-anchor="end">5.000 s</text>
<line x1="84" y1="238.0" x2="736" y2="238.0" stroke="#D8DEE4"/>
<text x="76" y="242.0" font-family="Helvetica Neue,Helvetica,Arial,DejaVu Sans,sans-serif" font-size="11" fill="#57606A" text-anchor="end">10.0 s</text>
<line x1="84" y1="184.0" x2="736" y2="184.0" stroke="#D8DEE4"/>
<text x="76" y="188.0" font-family="Helvetica Neue,Helvetica,Arial,DejaVu Sans,sans-serif" font-size="11" fill="#57606A" text-anchor="end">15.0 s</text>
<line x1="84" y1="130.0" x2="736" y2="130.0" stroke="#D8DEE4"/>
<text x="76" y="134.0" font-family="Helvetica Neue,Helvetica,Arial,DejaVu Sans,sans-serif" font-size="11" fill="#57606A" text-anchor="end">20.0 s</text>
<line x1="84" y1="76.0" x2="736" y2="76.0" stroke="#D8DEE4"/>
<text x="76" y="80.0" font-family="Helvetica Neue,Helvetica,Arial,DejaVu Sans,sans-serif" font-size="11" fill="#57606A" text-anchor="end">25.0 s</text>
<text x="84.0" y="364" font-family="Helvetica Neue,Helvetica,Arial,DejaVu Sans,sans-serif" font-size="11" fill="#57606A" text-anchor="middle">start</text>
<text x="247.0" y="364" font-family="Helvetica Neue,Helvetica,Arial,DejaVu Sans,sans-serif" font-size="11" fill="#57606A" text-anchor="middle">25%</text>
<text x="410.0" y="364" font-family="Helvetica Neue,Helvetica,Arial,DejaVu Sans,sans-serif" font-size="11" fill="#57606A" text-anchor="middle">50%</text>
<text x="573.0" y="364" font-family="Helvetica Neue,Helvetica,Arial,DejaVu Sans,sans-serif" font-size="11" fill="#57606A" text-anchor="middle">75%</text>
<text x="736.0" y="364" font-family="Helvetica Neue,Helvetica,Arial,DejaVu Sans,sans-serif" font-size="11" fill="#57606A" text-anchor="middle">end</text>
<text x="410" y="382" font-family="Helvetica Neue,Helvetica,Arial,DejaVu Sans,sans-serif" font-size="11.5" fill="#57606A" text-anchor="middle">share of the run</text>
<text x="24" y="66" font-family="Helvetica Neue,Helvetica,Arial,DejaVu Sans,sans-serif" font-size="11.5" fill="#57606A">seconds per turn</text>
<polyline fill="none" stroke="#56B4E9" stroke-width="2" stroke-linejoin="round" points="84.0,345.2 86.6,345.3 89.2,345.3 91.9,345.2 94.5,345.1 97.1,345.1 99.7,345.1 102.3,345.1 104.9,345.1 107.6,345.1 110.2,345.1 112.8,345.0 115.4,344.9 118.0,345.1 120.7,345.0 123.3,344.9 125.9,345.0 128.5,345.1 131.1,344.9 133.8,344.9 136.4,344.9 139.0,345.0 141.6,345.0 144.2,345.0 146.8,345.0 149.5,345.0 152.1,345.0 154.7,345.0 157.3,345.0 159.9,345.0 162.6,345.1 165.2,345.1 167.8,345.0 170.4,345.0 173.0,344.9 175.6,345.0 178.3,344.7 180.9,344.8 183.5,345.0 186.1,345.1 188.7,345.0 191.4,344.9 194.0,344.9 196.6,345.1 199.2,345.0 201.8,345.1 204.4,345.1 207.1,345.0 209.7,345.0 212.3,345.0 214.9,344.8 217.5,344.6 220.2,345.0 222.8,345.0 225.4,344.8 228.0,344.9 230.6,344.9 233.3,344.9 235.9,344.8 238.5,344.8 241.1,344.6 243.7,344.8 246.3,344.9 249.0,344.8 251.6,344.8 254.2,345.1 256.8,345.0 259.4,345.0 262.1,345.0 264.7,345.1 267.3,345.1 269.9,345.0 272.5,345.0 275.1,345.0 277.8,345.1 280.4,345.1 283.0,345.2 285.6,345.1 288.2,345.1 290.9,345.1 293.5,345.1 296.1,345.1 298.7,345.2 301.3,345.2 304.0,345.1 306.6,345.2 309.2,345.2 311.8,345.2 314.4,345.2 317.0,345.1 319.7,345.1 322.3,345.2 324.9,345.1 327.5,345.1 330.1,345.1 332.8,345.1 335.4,345.2 338.0,345.1 340.6,345.1 343.2,345.1 345.8,345.2 348.5,345.1 351.1,345.0 353.7,345.0 356.3,345.1 358.9,345.0 361.6,345.1 364.2,345.0 366.8,344.9 369.4,345.0 372.0,344.7 374.7,344.9 377.3,344.9 379.9,344.9 382.5,345.0 385.1,344.8 387.7,344.8 390.4,344.9 393.0,345.0 395.6,344.9 398.2,345.0 400.8,345.0 403.5,345.0 406.1,344.9 408.7,344.9 411.3,344.9 413.9,344.9 416.5,345.0 419.2,345.0 421.8,344.9 424.4,345.0 427.0,345.0 429.6,345.0 432.3,345.0 434.9,345.0 437.5,344.9 440.1,345.0 442.7,345.0 445.3,345.0 448.0,345.0 450.6,345.0 453.2,345.0 455.8,345.0 458.4,345.0 461.1,345.0 463.7,345.0 466.3,345.0 468.9,345.0 471.5,344.9 474.2,345.0 476.8,345.0 479.4,345.1 482.0,345.0 484.6,345.0 487.2,345.0 489.9,345.0 492.5,345.0 495.1,345.0 497.7,344.9 500.3,345.0 503.0,344.9 505.6,345.0 508.2,345.0 510.8,345.0 513.4,344.9 516.0,344.9 518.7,344.9 521.3,344.9 523.9,344.9 526.5,345.0 529.1,345.0 531.8,345.0 534.4,345.0 537.0,345.0 539.6,345.0 542.2,345.0 544.9,345.0 547.5,345.0 550.1,344.9 552.7,344.9 555.3,344.9 557.9,345.0 560.6,344.9 563.2,344.9 565.8,344.8 568.4,344.6 571.0,344.7 573.7,344.7 576.3,344.8 578.9,344.9 581.5,344.9 584.1,344.9 586.7,344.7 589.4,344.7 592.0,344.6 594.6,344.7 597.2,344.8 599.8,344.7 602.5,344.7 605.1,344.8 607.7,344.8 610.3,344.9 612.9,344.9 615.6,344.9 618.2,344.8 620.8,344.8 623.4,344.8 626.0,344.8 628.6,344.8 631.3,344.8 633.9,344.9 636.5,344.9 639.1,344.9 641.7,344.9 644.4,344.9 647.0,344.9 649.6,344.8 652.2,344.9 654.8,344.8 657.4,344.9 660.1,344.9 662.7,344.9 665.3,344.8 667.9,344.8 670.5,344.8 673.2,344.9 675.8,344.8 678.4,344.9 681.0,344.9 683.6,344.8 686.2,344.9 688.9,344.8 691.5,344.9 694.1,344.9 696.7,344.9 699.3,344.9 702.0,344.9 704.6,344.8 707.2,344.8 709.8,344.8 712.4,344.7 715.1,344.7 717.7,344.9 720.3,344.7 722.9,344.8 725.5,344.8 728.1,344.6 730.8,344.6 733.4,344.8 736.0,344.8"/>
<polyline fill="none" stroke="#0072B2" stroke-width="2" stroke-linejoin="round" points="84.0,341.5 86.6,344.7 89.2,345.0 91.9,345.1 94.5,345.2 97.1,344.4 99.7,344.7 102.3,344.7 104.9,344.9 107.6,345.0 110.2,344.9 112.8,345.1 115.4,345.2 118.0,345.0 120.7,345.0 123.3,344.8 125.9,344.6 128.5,344.6 131.1,344.7 133.8,344.7 136.4,344.7 139.0,344.5 141.6,344.6 144.2,344.5 146.8,344.4 149.5,344.4 152.1,344.2 154.7,344.1 157.3,344.2 159.9,343.9 162.6,343.7 165.2,344.0 167.8,343.9 170.4,343.9 173.0,343.4 175.6,343.7 178.3,343.7 180.9,343.3 183.5,343.7 186.1,343.6 188.7,343.6 191.4,343.8 194.0,343.7 196.6,343.7 199.2,343.3 201.8,343.6 204.4,343.6 207.1,343.6 209.7,343.6 212.3,343.7 214.9,343.6 217.5,343.8 220.2,343.6 222.8,343.8 225.4,343.4 228.0,343.4 230.6,343.4 233.3,343.5 235.9,343.5 238.5,343.2 241.1,343.4 243.7,343.5 246.3,343.5 249.0,343.3 251.6,343.3 254.2,343.1 256.8,343.2 259.4,343.2 262.1,343.4 264.7,343.3 267.3,342.9 269.9,343.1 272.5,343.3 275.1,343.0 277.8,343.1 280.4,343.1 283.0,343.4 285.6,343.2 288.2,343.1 290.9,343.4 293.5,343.4 296.1,343.2 298.7,343.2 301.3,343.2 304.0,343.1 306.6,343.0 309.2,343.1 311.8,343.0 314.4,342.8 317.0,343.1 319.7,342.8 322.3,342.9 324.9,343.1 327.5,342.9 330.1,342.8 332.8,342.9 335.4,342.9 338.0,343.1 340.6,342.8 343.2,342.8 345.8,342.9 348.5,342.9 351.1,342.9 353.7,342.7 356.3,342.8 358.9,342.8 361.6,342.8 364.2,342.7 366.8,342.7 369.4,342.4 372.0,342.6 374.7,342.5 377.3,342.7 379.9,342.4 382.5,342.1 385.1,341.9 387.7,341.4 390.4,341.9 393.0,342.2 395.6,342.0 398.2,341.6 400.8,341.9 403.5,342.0 406.1,341.9 408.7,340.6 411.3,340.5 413.9,341.5 416.5,341.5 419.2,341.8 421.8,341.6 424.4,341.9 427.0,341.5 429.6,341.8 432.3,341.4 434.9,341.5 437.5,341.3 440.1,341.6 442.7,341.8 445.3,341.4 448.0,341.7 450.6,341.0 453.2,341.1 455.8,340.6 458.4,340.8 461.1,339.9 463.7,339.5 466.3,339.3 468.9,340.5 471.5,340.4 474.2,340.7 476.8,340.6 479.4,340.5 482.0,341.0 484.6,340.7 487.2,340.3 489.9,340.1 492.5,340.4 495.1,340.4 497.7,340.3 500.3,340.5 503.0,340.5 505.6,340.4 508.2,340.4 510.8,340.6 513.4,340.7 516.0,340.4 518.7,340.5 521.3,340.4 523.9,340.6 526.5,340.4 529.1,340.5 531.8,340.5 534.4,339.9 537.0,340.4 539.6,339.8 542.2,340.1 544.9,340.1 547.5,340.3 550.1,340.2 552.7,340.0 555.3,340.2 557.9,340.0 560.6,340.2 563.2,340.2 565.8,340.1 568.4,339.7 571.0,340.0 573.7,339.6 576.3,340.0 578.9,339.6 581.5,339.3 584.1,339.4 586.7,339.7 589.4,339.7 592.0,339.2 594.6,339.8 597.2,339.6 599.8,339.6 602.5,339.7 605.1,339.5 607.7,339.6 610.3,339.5 612.9,339.6 615.6,339.5 618.2,339.3 620.8,339.3 623.4,339.7 626.0,339.9 628.6,339.5 631.3,339.6 633.9,340.1 636.5,339.6 639.1,339.8 641.7,340.1 644.4,339.9 647.0,339.6 649.6,340.0 652.2,339.8 654.8,339.9 657.4,339.8 660.1,339.5 662.7,339.8 665.3,339.7 667.9,335.7 670.5,334.7 673.2,334.2 675.8,334.5 678.4,334.6 681.0,333.9 683.6,334.0 686.2,334.1 688.9,333.8 691.5,333.9 694.1,336.4 696.7,337.8 699.3,338.0 702.0,338.1 704.6,337.7 707.2,338.2 709.8,339.0 712.4,338.7 715.1,339.1 717.7,339.0 720.3,339.0 722.9,339.0 725.5,338.8 728.1,338.6 730.8,338.7 733.4,338.5 736.0,338.3"/>
<polyline fill="none" stroke="#B03A48" stroke-width="2" stroke-linejoin="round" points="84.0,339.2 86.6,342.7 89.2,343.7 91.9,344.1 94.5,344.3 97.1,344.1 99.7,344.1 102.3,343.8 104.9,344.6 107.6,344.5 110.2,343.9 112.8,343.6 115.4,344.3 118.0,344.5 120.7,344.2 123.3,344.2 125.9,344.0 128.5,343.9 131.1,344.7 133.8,344.1 136.4,344.1 139.0,344.2 141.6,343.6 144.2,344.2 146.8,344.3 149.5,343.0 152.1,344.0 154.7,344.2 157.3,343.0 159.9,342.2 162.6,343.4 165.2,344.2 167.8,342.2 170.4,342.3 173.0,343.6 175.6,344.1 178.3,344.9 180.9,343.6 183.5,343.5 186.1,342.9 188.7,343.8 191.4,343.7 194.0,343.6 196.6,343.6 199.2,344.0 201.8,343.2 204.4,343.0 207.1,343.6 209.7,343.1 212.3,344.0 214.9,342.6 217.5,343.4 220.2,343.0 222.8,342.4 225.4,343.4 228.0,342.3 230.6,340.5 233.3,343.2 235.9,343.1 238.5,342.1 241.1,343.0 243.7,340.6 246.3,341.6 249.0,343.1 251.6,343.5 254.2,343.7 256.8,343.1 259.4,342.6 262.1,342.6 264.7,342.1 267.3,342.5 269.9,342.2 272.5,340.4 275.1,340.7 277.8,340.9 280.4,338.3 283.0,339.9 285.6,338.4 288.2,335.4 290.9,339.2 293.5,341.0 296.1,341.3 298.7,341.1 301.3,336.8 304.0,336.5 306.6,338.0 309.2,339.3 311.8,338.1 314.4,338.3 317.0,337.8 319.7,342.4 322.3,341.1 324.9,340.2 327.5,340.4 330.1,341.0 332.8,338.3 335.4,339.3 338.0,338.6 340.6,339.5 343.2,338.8 345.8,339.6 348.5,339.4 351.1,333.5 353.7,339.7 356.3,336.2 358.9,336.7 361.6,340.7 364.2,333.6 366.8,338.7 369.4,338.1 372.0,337.9 374.7,335.4 377.3,337.0 379.9,336.8 382.5,333.5 385.1,328.9 387.7,331.3 390.4,331.2 393.0,333.1 395.6,332.6 398.2,333.2 400.8,327.4 403.5,330.9 406.1,339.8 408.7,327.4 411.3,333.0 413.9,332.3 416.5,331.8 419.2,330.4 421.8,329.8 424.4,327.6 427.0,333.7 429.6,331.5 432.3,329.8 434.9,338.1 437.5,334.0 440.1,320.9 442.7,331.6 445.3,332.1 448.0,326.0 450.6,322.5 453.2,323.9 455.8,316.5 458.4,329.3 461.1,331.2 463.7,332.6 466.3,326.1 468.9,327.0 471.5,326.8 474.2,327.8 476.8,328.7 479.4,324.7 482.0,327.8 484.6,326.5 487.2,321.5 489.9,326.1 492.5,315.9 495.1,325.3 497.7,330.0 500.3,319.0 503.0,331.7 505.6,318.0 508.2,323.4 510.8,324.3 513.4,323.7 516.0,323.1 518.7,323.3 521.3,322.0 523.9,303.4 526.5,324.6 529.1,328.4 531.8,329.2 534.4,318.0 537.0,323.9 539.6,320.3 542.2,325.7 544.9,323.9 547.5,319.7 550.1,323.9 552.7,325.5 555.3,311.6 557.9,308.5 560.6,317.3 563.2,329.0 565.8,326.9 568.4,327.2 571.0,314.1 573.7,319.2 576.3,322.0 578.9,324.4 581.5,322.9 584.1,328.0 586.7,324.0 589.4,311.2 592.0,316.5 594.6,318.6 597.2,318.4 599.8,318.3 602.5,305.7 605.1,319.7 607.7,326.6 610.3,323.3 612.9,319.5 615.6,320.7 618.2,305.3 620.8,321.6 623.4,317.5 626.0,309.8 628.6,305.0 631.3,288.9 633.9,314.5 636.5,318.8 639.1,316.9 641.7,308.8 644.4,315.4 647.0,315.6 649.6,314.9 652.2,313.5 654.8,303.4 657.4,301.7 660.1,300.0 662.7,313.6 665.3,313.8 667.9,295.9 670.5,310.9 673.2,310.3 675.8,305.3 678.4,309.6 681.0,307.1 683.6,317.4 686.2,291.0 688.9,305.3 691.5,309.8 694.1,307.1 696.7,306.8 699.3,316.2 702.0,309.6 704.6,318.0 707.2,311.1 709.8,306.0 712.4,306.7 715.1,305.7 717.7,317.8 720.3,322.1 722.9,303.8 725.5,317.3 728.1,315.4 730.8,319.1 733.4,314.6 736.0,315.4"/>
<polyline fill="none" stroke="#E69F00" stroke-width="2" stroke-linejoin="round" points="84.0,342.9 86.6,340.1 89.3,340.4 91.9,337.4 94.5,338.2 97.1,340.0 99.8,340.2 102.4,339.7 105.0,336.7 107.7,338.9 110.3,339.6 112.9,339.8 115.5,339.8 118.2,335.8 120.8,338.7 123.4,339.5 126.1,338.7 128.7,338.8 131.3,334.3 134.0,337.7 136.6,338.4 139.2,338.6 141.8,338.2 144.5,333.0 147.1,337.6 149.7,337.4 152.4,337.9 155.0,337.5 157.6,332.0 160.2,336.8 162.9,337.0 165.5,336.8 168.1,336.5 170.8,330.8 173.4,336.6 176.0,336.9 178.6,336.5 181.3,336.1 183.9,329.5 186.5,335.7 189.2,335.9 191.8,335.4 194.4,335.8 197.0,327.8 199.7,334.2 202.3,335.8 204.9,334.6 207.6,335.0 210.2,326.4 212.8,334.5 215.5,334.5 218.1,334.2 220.7,334.4 223.3,323.8 226.0,333.7 228.6,333.4 231.2,333.5 233.9,334.2 236.5,322.5 239.1,333.0 241.7,333.5 244.4,333.1 247.0,332.0 249.6,320.9 252.3,332.1 254.9,332.1 257.5,331.5 260.1,331.7 262.8,319.3 265.4,331.3 268.0,331.3 270.7,331.9 273.3,330.7 275.9,317.5 278.5,331.6 281.2,331.2 283.8,330.5 286.4,329.8 289.1,317.4 291.7,330.8 294.3,330.3 297.0,330.0 299.6,329.2 302.2,313.5 304.8,330.3 307.5,329.7 310.1,329.8 312.7,329.3 315.4,311.7 318.0,329.9 320.6,329.3 323.2,328.9 325.9,328.0 328.5,308.3 331.1,327.6 333.8,328.3 336.4,325.2 339.0,327.0 341.6,306.8 344.3,325.8 346.9,326.7 349.5,327.6 352.2,326.9 354.8,305.4 357.4,327.6 360.0,326.9 362.7,326.9 365.3,325.4 367.9,303.2 370.6,326.2 373.2,326.2 375.8,326.6 378.5,325.4 381.1,303.4 383.7,325.7 386.3,325.3 389.0,325.9 391.6,325.1 394.2,303.9 396.9,325.6 399.5,325.6 402.1,325.7 404.7,324.0 407.4,301.0 410.0,323.4 412.6,325.3 415.3,325.0 417.9,325.0 420.5,299.2 423.1,324.4 425.8,324.9 428.4,325.7 431.0,321.9 433.7,292.8 436.3,324.3 438.9,324.1 441.5,323.7 444.2,324.1 446.8,295.9 449.4,324.9 452.1,324.5 454.7,322.9 457.3,323.8 460.0,295.1 462.6,322.7 465.2,322.7 467.8,324.0 470.5,323.9 473.1,292.7 475.7,322.3 478.4,322.8 481.0,323.6 483.6,324.2 486.2,295.3 488.9,322.9 491.5,322.5 494.1,323.4 496.8,321.9 499.4,292.6 502.0,323.4 504.6,322.8 507.3,323.1 509.9,323.0 512.5,295.2 515.2,323.8 517.8,323.2 520.4,323.4 523.0,321.5 525.7,289.8 528.3,322.4 530.9,323.8 533.6,324.4 536.2,322.4 538.8,283.0 541.5,323.2 544.1,321.2 546.7,321.8 549.3,319.6 552.0,287.0 554.6,320.7 557.2,322.8 559.9,320.9 562.5,320.0 565.1,287.1 567.7,318.8 570.4,321.6 573.0,321.9 575.6,321.5 578.3,292.7 580.9,321.0 583.5,320.9 586.1,321.5 588.8,317.9 591.4,289.2 594.0,322.9 596.7,321.8 599.3,321.5 601.9,318.6 604.5,291.4 607.2,320.5 609.8,321.3 612.4,321.8 615.1,320.3 617.7,290.9 620.3,321.7 623.0,320.9 625.6,322.0 628.2,320.6 630.8,292.1 633.5,319.6 636.1,319.2 638.7,321.3 641.4,317.5 644.0,290.3 646.6,316.6 649.2,319.0 651.9,320.7 654.5,319.0 657.1,288.0 659.8,320.8 662.4,319.7 665.0,319.5 667.6,317.9 670.3,287.9 672.9,320.3 675.5,319.1 678.2,319.3 680.8,322.5 683.4,277.6 686.0,320.2 688.7,322.3 691.3,322.9 693.9,321.1 696.6,286.7 699.2,322.7 701.8,319.8 704.5,323.2 707.1,319.9 709.7,284.4 712.3,321.5 715.0,320.2 717.6,321.8 720.2,321.2 722.9,281.9 725.5,322.5 728.1,320.3 730.7,322.4 733.4,322.0 736.0,275.0"/>
<polyline fill="none" stroke="#CC79A7" stroke-width="2" stroke-linejoin="round" points="84.0,271.3 86.6,272.1 89.2,272.0 91.9,273.5 94.5,229.2 97.1,226.7 99.7,269.9 102.3,271.1 104.9,273.1 107.6,270.6 110.2,269.3 112.8,270.8 115.4,269.5 118.0,188.0 120.7,225.8 123.3,227.9 125.9,188.3 128.5,229.2 131.1,225.5 133.8,190.2 136.4,227.0 139.0,227.7 141.6,187.4 144.2,224.9 146.8,227.7 149.5,189.6 152.1,180.5 154.7,182.4 157.3,186.9 159.9,184.1 162.6,187.0 165.2,184.4 167.8,182.6 170.4,187.7 173.0,185.1 175.6,184.4 178.3,183.9 180.9,187.0 183.5,183.2 186.1,185.6 188.7,184.6 191.4,183.6 194.0,186.8 196.6,185.2 199.2,179.6 201.8,184.3 204.4,185.1 207.1,185.8 209.7,226.4 212.3,148.8 214.9,227.4 217.5,224.0 220.2,188.7 222.8,187.8 225.4,186.9 228.0,230.4 230.6,224.3 233.3,185.0 235.9,185.6 238.5,184.5 241.1,183.1 243.7,183.2 246.3,185.4 249.0,184.3 251.6,228.1 254.2,144.5 256.8,184.1 259.4,185.6 262.1,179.5 264.7,183.1 267.3,184.3 269.9,185.7 272.5,185.8 275.1,186.4 277.8,188.2 280.4,183.9 283.0,186.8 285.6,185.1 288.2,185.2 290.9,186.8 293.5,187.2 296.1,188.0 298.7,189.7 301.3,188.4 304.0,185.0 306.6,187.5 309.2,187.0 311.8,189.2 314.4,228.2 317.0,147.0 319.7,190.9 322.3,185.7 324.9,189.6 327.5,186.8 330.1,186.4 332.8,188.5 335.4,187.8 338.0,184.1 340.6,185.8 343.2,188.1 345.8,190.1 348.5,187.8 351.1,189.3 353.7,189.0 356.3,189.5 358.9,185.2 361.6,184.0 364.2,184.6 366.8,187.4 369.4,186.2 372.0,184.6 374.7,181.9 377.3,183.4 379.9,185.7 382.5,226.7 385.1,147.0 387.7,184.0 390.4,187.7 393.0,225.1 395.6,144.1 398.2,225.5 400.8,140.1 403.5,182.3 406.1,185.9 408.7,184.3 411.3,185.7 413.9,185.4 416.5,185.8 419.2,185.9 421.8,172.8 424.4,224.9 427.0,140.5 429.6,186.2 432.3,184.5 434.9,224.1 437.5,141.3 440.1,225.9 442.7,223.6 445.3,182.9 448.0,182.8 450.6,177.8 453.2,223.7 455.8,220.4 458.4,180.8 461.1,181.1 463.7,181.1 466.3,179.4 468.9,180.0 471.5,221.5 474.2,139.4 476.8,179.2 479.4,179.7 482.0,222.1 484.6,222.2 487.2,180.5 489.9,221.1 492.5,141.7 495.1,181.3 497.7,177.1 500.3,181.7 503.0,180.3 505.6,175.6 508.2,177.0 510.8,221.0 513.4,138.1 516.0,223.4 518.7,143.7 521.3,180.2 523.9,181.6 526.5,179.3 529.1,178.2 531.8,220.3 534.4,224.1 537.0,174.6 539.6,177.7 542.2,179.6 544.9,218.7 547.5,137.8 550.1,173.0 552.7,172.4 555.3,214.1 557.9,215.3 560.6,170.9 563.2,218.1 565.8,214.7 568.4,169.7 571.0,172.5 573.7,176.8 576.3,219.2 578.9,133.6 581.5,213.3 584.1,135.1 586.7,175.3 589.4,176.2 592.0,173.0 594.6,174.6 597.2,215.4 599.8,219.2 602.5,169.5 605.1,174.6 607.7,171.8 610.3,172.8 612.9,172.8 615.6,171.8 618.2,174.3 620.8,169.1 623.4,166.9 626.0,175.4 628.6,172.6 631.3,173.4 633.9,172.1 636.5,159.7 639.1,170.2 641.7,173.9 644.4,175.4 647.0,173.1 649.6,174.3 652.2,214.6 654.8,131.6 657.4,173.6 660.1,175.0 662.7,214.4 665.3,130.6 667.9,167.7 670.5,167.2 673.2,164.2 675.8,165.3 678.4,163.4 681.0,165.9 683.6,205.4 686.2,123.7 688.9,212.7 691.5,211.8 694.1,167.8 696.7,165.6 699.3,160.2 702.0,161.7 704.6,162.3 707.2,166.7 709.8,158.9 712.4,161.7 715.1,150.0 717.7,159.7 720.3,166.2 722.9,207.5 725.5,126.3 728.1,162.0 730.8,162.9 733.4,165.4 736.0,162.9"/>
<rect x="84.0" y="400" width="14" height="4" fill="#56B4E9"/><text x="103.0" y="405" font-family="Helvetica Neue,Helvetica,Arial,DejaVu Sans,sans-serif" font-size="11.5" fill="#1F2328">Open Doctrines</text>
<rect x="213.2" y="400" width="14" height="4" fill="#0072B2"/><text x="232.2" y="405" font-family="Helvetica Neue,Helvetica,Arial,DejaVu Sans,sans-serif" font-size="11.5" fill="#1F2328">Unciv</text>
<rect x="287.1" y="400" width="14" height="4" fill="#B03A48"/><text x="306.1" y="405" font-family="Helvetica Neue,Helvetica,Arial,DejaVu Sans,sans-serif" font-size="11.5" fill="#1F2328">FreeCol</text>
<rect x="374.9" y="400" width="14" height="4" fill="#E69F00"/><text x="393.9" y="405" font-family="Helvetica Neue,Helvetica,Arial,DejaVu Sans,sans-serif" font-size="11.5" fill="#1F2328">Freeciv</text>
<rect x="461.4" y="400" width="14" height="4" fill="#CC79A7"/><text x="480.4" y="405" font-family="Helvetica Neue,Helvetica,Arial,DejaVu Sans,sans-serif" font-size="11.5" fill="#1F2328">Greater Diplomacy 5</text>
</svg>
