<svg xmlns="http://www.w3.org/2000/svg" viewBox="0 0 760 420" width="760" height="420" role="img" aria-label="Turn time through the run">
<title>Turn time through the run</title>
<rect width="760" height="420" fill="#FFFFFF"/>
<text x="24" y="34" font-family="Helvetica Neue,Helvetica,Arial,DejaVu Sans,sans-serif" font-size="18" font-weight="600" fill="#1F2328">Turn time through the run</text>
<text x="24" y="56" font-family="Helvetica Neue,Helvetica,Arial,DejaVu Sans,sans-serif" font-size="12.5" fill="#57606A">Each run stretched from its first turn to its last, so runs of different lengths line up. Lower is faster.</text>
<line x1="84" y1="346.0" x2="736" y2="346.0" stroke="#D8DEE4"/>
<text x="76" y="350.0" font-family="Helvetica Neue,Helvetica,Arial,DejaVu Sans,sans-serif" font-size="11" fill="#57606A" text-anchor="end">0.0000 s</text>
<line x1="84" y1="278.5" x2="736" y2="278.5" stroke="#D8DEE4"/>
<text x="76" y="282.5" font-family="Helvetica Neue,Helvetica,Arial,DejaVu Sans,sans-serif" font-size="11" fill="#57606A" text-anchor="end">5.000 s</text>
<line x1="84" y1="211.0" x2="736" y2="211.0" stroke="#D8DEE4"/>
<text x="76" y="215.0" font-family="Helvetica Neue,Helvetica,Arial,DejaVu Sans,sans-serif" font-size="11" fill="#57606A" text-anchor="end">10.0 s</text>
<line x1="84" y1="143.5" x2="736" y2="143.5" stroke="#D8DEE4"/>
<text x="76" y="147.5" font-family="Helvetica Neue,Helvetica,Arial,DejaVu Sans,sans-serif" font-size="11" fill="#57606A" text-anchor="end">15.0 s</text>
<line x1="84" y1="76.0" x2="736" y2="76.0" stroke="#D8DEE4"/>
<text x="76" y="80.0" font-family="Helvetica Neue,Helvetica,Arial,DejaVu Sans,sans-serif" font-size="11" fill="#57606A" text-anchor="end">20.0 s</text>
<text x="84.0" y="364" font-family="Helvetica Neue,Helvetica,Arial,DejaVu Sans,sans-serif" font-size="11" fill="#57606A" text-anchor="middle">start</text>
<text x="247.0" y="364" font-family="Helvetica Neue,Helvetica,Arial,DejaVu Sans,sans-serif" font-size="11" fill="#57606A" text-anchor="middle">25%</text>
<text x="410.0" y="364" font-family="Helvetica Neue,Helvetica,Arial,DejaVu Sans,sans-serif" font-size="11" fill="#57606A" text-anchor="middle">50%</text>
<text x="573.0" y="364" font-family="Helvetica Neue,Helvetica,Arial,DejaVu Sans,sans-serif" font-size="11" fill="#57606A" text-anchor="middle">75%</text>
<text x="736.0" y="364" font-family="Helvetica Neue,Helvetica,Arial,DejaVu Sans,sans-serif" font-size="11" fill="#57606A" text-anchor="middle">end</text>
<text x="410" y="382" font-family="Helvetica Neue,Helvetica,Arial,DejaVu Sans,sans-serif" font-size="11.5" fill="#57606A" text-anchor="middle">share of the run</text>
<text x="24" y="66" font-family="Helvetica Neue,Helvetica,Arial,DejaVu Sans,sans-serif" font-size="11.5" fill="#57606A">seconds per turn</text>
<polyline fill="none" stroke="#56B4E9" stroke-width="2" stroke-linejoin="round" points="84.0,345.7 86.6,345.7 89.2,345.7 91.9,345.6 94.5,345.6 97.1,345.6 99.7,345.6 102.3,345.6 104.9,345.6 107.6,345.7 110.2,345.6 112.8,345.7 115.4,345.7 118.0,345.6 120.7,345.6 123.3,345.7 125.9,345.7 128.5,345.7 131.1,345.7 133.8,345.6 136.4,345.6 139.0,345.6 141.6,345.6 144.2,345.6 146.8,345.7 149.5,345.6 152.1,345.6 154.7,345.6 157.3,345.6 159.9,345.6 162.6,345.6 165.2,345.6 167.8,345.6 170.4,345.6 173.0,345.6 175.6,345.6 178.3,345.7 180.9,345.7 183.5,345.7 186.1,345.7 188.7,345.7 191.4,345.7 194.0,345.7 196.6,345.6 199.2,345.6 201.8,345.7 204.4,345.7 207.1,345.7 209.7,345.6 212.3,345.6 214.9,345.6 217.5,345.7 220.2,345.6 222.8,345.6 225.4,345.7 228.0,345.6 230.6,345.6 233.3,345.6 235.9,345.6 238.5,345.6 241.1,345.6 243.7,345.6 246.3,345.6 249.0,345.6 251.6,345.6 254.2,345.6 256.8,345.6 259.4,345.6 262.1,345.6 264.7,345.6 267.3,345.6 269.9,345.6 272.5,345.7 275.1,345.7 277.8,345.7 280.4,345.7 283.0,345.6 285.6,345.7 288.2,345.6 290.9,345.7 293.5,345.7 296.1,345.6 298.7,345.7 301.3,345.7 304.0,345.7 306.6,345.7 309.2,345.7 311.8,345.6 314.4,345.7 317.0,345.7 319.7,345.7 322.3,345.7 324.9,345.7 327.5,345.6 330.1,345.7 332.8,345.6 335.4,345.7 338.0,345.6 340.6,345.6 343.2,345.7 345.8,345.7 348.5,345.7 351.1,345.7 353.7,345.6 356.3,345.7 358.9,345.7 361.6,345.6 364.2,345.6 366.8,345.6 369.4,345.6 372.0,345.7 374.7,345.7 377.3,345.6 379.9,345.6 382.5,345.7 385.1,345.6 387.7,345.6 390.4,345.6 393.0,345.6 395.6,345.7 398.2,345.6 400.8,345.6 403.5,345.6 406.1,345.7 408.7,345.7 411.3,345.6 413.9,345.6 416.5,345.6 419.2,345.7 421.8,345.7 424.4,345.7 427.0,345.7 429.6,345.7 432.3,345.7 434.9,345.7 437.5,345.7 440.1,345.7 442.7,345.7 445.3,345.7 448.0,345.7 450.6,345.7 453.2,345.7 455.8,345.7 458.4,345.6 461.1,345.7 463.7,345.7 466.3,345.7 468.9,345.7 471.5,345.7 474.2,345.7 476.8,345.7 479.4,345.7 482.0,345.6 484.6,345.7 487.2,345.7 489.9,345.7 492.5,345.7 495.1,345.7 497.7,345.7 500.3,345.7 503.0,345.7 505.6,345.7 508.2,345.7 510.8,345.7 513.4,345.7 516.0,345.7 518.7,345.7 521.3,345.7 523.9,345.7 526.5,345.7 529.1,345.7 531.8,345.7 534.4,345.6 537.0,345.7 539.6,345.7 542.2,345.7 544.9,345.7 547.5,345.7 550.1,345.7 552.7,345.7 555.3,345.7 557.9,345.6 560.6,345.6 563.2,345.6 565.8,345.7 568.4,345.6 571.0,345.6 573.7,345.6 576.3,345.6 578.9,345.7 581.5,345.7 584.1,345.7 586.7,345.7 589.4,345.6 592.0,345.7 594.6,345.7 597.2,345.7 599.8,345.6 602.5,345.7 605.1,345.7 607.7,345.6 610.3,345.7 612.9,345.6 615.6,345.6 618.2,345.7 620.8,345.7 623.4,345.7 626.0,345.6 628.6,345.6 631.3,345.7 633.9,345.7 636.5,345.6 639.1,345.6 641.7,345.6 644.4,345.7 647.0,345.7 649.6,345.6 652.2,345.7 654.8,345.7 657.4,345.7 660.1,345.7 662.7,345.7 665.3,345.7 667.9,345.7 670.5,345.7 673.2,345.7 675.8,345.7 678.4,345.7 681.0,345.7 683.6,345.7 686.2,345.7 688.9,345.7 691.5,345.7 694.1,345.7 696.7,345.7 699.3,345.7 702.0,345.7 704.6,345.7 707.2,345.7 709.8,345.7 712.4,345.7 715.1,345.7 717.7,345.7 720.3,345.7 722.9,345.7 725.5,345.7 728.1,345.7 730.8,345.7 733.4,345.6 736.0,345.7"/>
<polyline fill="none" stroke="#0072B2" stroke-width="2" stroke-linejoin="round" points="84.0,341.9 86.6,344.3 89.2,344.7 91.9,345.1 94.5,345.0 97.1,345.0 99.7,344.9 102.3,344.6 104.9,344.6 107.6,344.5 110.2,344.9 112.8,344.9 115.4,344.9 118.0,344.9 120.7,344.6 123.3,344.8 125.9,344.7 128.5,344.7 131.1,344.8 133.8,344.7 136.4,344.6 139.0,344.7 141.6,344.6 144.2,344.5 146.8,344.7 149.5,344.3 152.1,344.4 154.7,344.4 157.3,344.4 159.9,344.3 162.6,344.3 165.2,344.2 167.8,344.1 170.4,344.0 173.0,344.3 175.6,344.0 178.3,344.2 180.9,344.0 183.5,344.0 186.1,344.1 188.7,344.1 191.4,343.8 194.0,344.0 196.6,344.1 199.2,344.0 201.8,343.8 204.4,343.8 207.1,343.8 209.7,343.8 212.3,343.8 214.9,343.7 217.5,343.8 220.2,343.6 222.8,343.5 225.4,343.6 228.0,343.3 230.6,343.6 233.3,343.4 235.9,343.2 238.5,343.4 241.1,343.0 243.7,343.3 246.3,343.9 249.0,343.8 251.6,343.7 254.2,343.8 256.8,343.9 259.4,343.9 262.1,344.1 264.7,344.0 267.3,344.0 269.9,344.0 272.5,344.0 275.1,344.1 277.8,344.0 280.4,343.8 283.0,344.1 285.6,344.0 288.2,344.0 290.9,344.0 293.5,343.8 296.1,343.9 298.7,343.9 301.3,343.7 304.0,343.6 306.6,343.9 309.2,343.5 311.8,343.9 314.4,343.8 317.0,343.7 319.7,343.6 322.3,343.6 324.9,343.8 327.5,343.8 330.1,344.0 332.8,343.8 335.4,343.7 338.0,343.5 340.6,343.6 343.2,343.7 345.8,343.3 348.5,343.2 351.1,343.5 353.7,343.3 356.3,343.5 358.9,343.5 361.6,343.4 364.2,343.3 366.8,343.7 369.4,343.4 372.0,343.5 374.7,343.3 377.3,343.2 379.9,343.7 382.5,343.7 385.1,343.4 387.7,343.6 390.4,343.6 393.0,343.6 395.6,343.5 398.2,343.5 400.8,343.5 403.5,343.5 406.1,343.3 408.7,343.4 411.3,343.3 413.9,343.4 416.5,343.2 419.2,343.5 421.8,343.3 424.4,343.3 427.0,343.5 429.6,343.4 432.3,343.4 434.9,343.5 437.5,343.4 440.1,343.3 442.7,342.8 445.3,342.3 448.0,342.1 450.6,342.6 453.2,343.1 455.8,343.0 458.4,342.9 461.1,343.1 463.7,343.1 466.3,343.0 468.9,342.6 471.5,343.1 474.2,343.1 476.8,343.1 479.4,343.4 482.0,343.1 484.6,343.2 487.2,343.0 489.9,343.0 492.5,343.0 495.1,342.9 497.7,343.0 500.3,343.1 503.0,343.0 505.6,343.0 508.2,343.1 510.8,343.1 513.4,343.0 516.0,343.1 518.7,343.1 521.3,343.2 523.9,343.1 526.5,343.2 529.1,343.1 531.8,343.0 534.4,342.9 537.0,342.9 539.6,343.1 542.2,343.0 544.9,342.9 547.5,342.6 550.1,342.6 552.7,343.0 555.3,342.9 557.9,343.0 560.6,343.0 563.2,343.0 565.8,343.0 568.4,342.9 571.0,342.9 573.7,343.1 576.3,343.0 578.9,343.2 581.5,343.1 584.1,343.3 586.7,343.2 589.4,343.2 592.0,343.1 594.6,343.2 597.2,343.2 599.8,343.1 602.5,343.1 605.1,343.1 607.7,343.2 610.3,343.2 612.9,343.1 615.6,343.2 618.2,343.1 620.8,343.1 623.4,342.9 626.0,342.8 628.6,342.9 631.3,343.0 633.9,342.9 636.5,342.9 639.1,343.0 641.7,342.9 644.4,342.9 647.0,342.7 649.6,342.7 652.2,342.5 654.8,341.9 657.4,342.0 660.1,342.0 662.7,341.9 665.3,342.1 667.9,342.3 670.5,342.2 673.2,341.8 675.8,341.5 678.4,340.9 681.0,340.9 683.6,341.7 686.2,341.5 688.9,341.4 691.5,341.3 694.1,341.1 696.7,341.1 699.3,341.2 702.0,341.5 704.6,341.4 707.2,341.6 709.8,341.3 712.4,341.2 715.1,341.5 717.7,341.6 720.3,341.8 722.9,341.8 725.5,341.7 728.1,341.6 730.8,341.5 733.4,341.7 736.0,341.8"/>
<polyline fill="none" stroke="#CC79A7" stroke-width="2" stroke-linejoin="round" points="84.0,339.8 86.6,340.2 89.2,341.0 91.9,341.3 94.5,340.9 97.1,338.6 99.7,340.0 102.3,340.0 104.9,339.8 107.6,340.8 110.2,339.8 112.8,339.9 115.4,339.2 118.0,339.0 120.7,338.4 123.3,338.8 125.9,337.4 128.5,337.6 131.1,336.9 133.8,336.1 136.4,336.6 139.0,337.6 141.6,336.3 144.2,337.3 146.8,337.2 149.5,335.3 152.1,334.0 154.7,334.1 157.3,334.4 159.9,333.0 162.6,336.7 165.2,334.0 167.8,333.8 170.4,335.5 173.0,334.8 175.6,336.2 178.3,334.3 180.9,333.0 183.5,331.6 186.1,328.7 188.7,329.9 191.4,328.3 194.0,329.5 196.6,327.9 199.2,331.2 201.8,331.7 204.4,331.8 207.1,331.1 209.7,332.8 212.3,333.5 214.9,333.1 217.5,332.9 220.2,332.6 222.8,333.1 225.4,333.3 228.0,332.5 230.6,332.7 233.3,332.9 235.9,334.3 238.5,332.1 241.1,334.8 243.7,334.2 246.3,335.2 249.0,336.0 251.6,335.7 254.2,336.3 256.8,334.4 259.4,334.6 262.1,329.9 264.7,325.9 267.3,328.5 269.9,330.0 272.5,330.4 275.1,330.7 277.8,330.9 280.4,331.1 283.0,330.0 285.6,329.6 288.2,331.4 290.9,331.7 293.5,337.0 296.1,336.3 298.7,335.1 301.3,327.5 304.0,325.1 306.6,326.8 309.2,327.1 311.8,325.9 314.4,328.2 317.0,328.5 319.7,327.6 322.3,328.3 324.9,329.1 327.5,326.3 330.1,327.4 332.8,329.6 335.4,330.1 338.0,330.4 340.6,330.1 343.2,330.2 345.8,332.5 348.5,332.4 351.1,332.7 353.7,333.0 356.3,335.2 358.9,335.4 361.6,336.8 364.2,333.9 366.8,336.1 369.4,336.4 372.0,336.2 374.7,335.2 377.3,331.4 379.9,331.9 382.5,332.8 385.1,332.5 387.7,333.8 390.4,338.0 393.0,337.9 395.6,334.5 398.2,335.6 400.8,332.9 403.5,333.4 406.1,334.2 408.7,336.8 411.3,338.4 413.9,333.1 416.5,337.0 419.2,338.1 421.8,338.0 424.4,337.8 427.0,336.0 429.6,335.2 432.3,337.3 434.9,335.4 437.5,336.4 440.1,338.3 442.7,338.1 445.3,337.1 448.0,337.6 450.6,337.3 453.2,337.7 455.8,336.7 458.4,338.0 461.1,336.7 463.7,337.7 466.3,335.1 468.9,331.9 471.5,336.7 474.2,336.3 476.8,337.3 479.4,337.5 482.0,337.3 484.6,337.4 487.2,337.4 489.9,337.1 492.5,338.1 495.1,336.6 497.7,337.9 500.3,337.3 503.0,337.6 505.6,338.2 508.2,338.2 510.8,337.5 513.4,335.7 516.0,333.4 518.7,337.0 521.3,337.1 523.9,338.1 526.5,338.0 529.1,337.0 531.8,331.2 534.4,337.2 537.0,336.9 539.6,337.4 542.2,337.0 544.9,337.0 547.5,337.3 550.1,337.4 552.7,337.7 555.3,336.7 557.9,336.2 560.6,337.1 563.2,337.6 565.8,334.2 568.4,334.4 571.0,336.9 573.7,335.9 576.3,337.8 578.9,337.4 581.5,336.5 584.1,336.9 586.7,334.8 589.4,337.1 592.0,336.6 594.6,337.3 597.2,337.3 599.8,336.3 602.5,337.6 605.1,330.0 607.7,337.1 610.3,336.6 612.9,337.7 615.6,337.7 618.2,337.1 620.8,336.1 623.4,334.3 626.0,334.5 628.6,336.5 631.3,337.3 633.9,337.2 636.5,336.6 639.1,336.4 641.7,336.6 644.4,337.3 647.0,337.1 649.6,335.8 652.2,336.4 654.8,336.3 657.4,336.2 660.1,336.7 662.7,337.1 665.3,336.6 667.9,336.1 670.5,336.3 673.2,335.2 675.8,336.0 678.4,335.8 681.0,334.5 683.6,326.0 686.2,332.6 688.9,335.7 691.5,335.6 694.1,337.1 696.7,334.6 699.3,335.5 702.0,337.1 704.6,336.7 707.2,336.2 709.8,336.0 712.4,336.9 715.1,336.6 717.7,335.9 720.3,335.8 722.9,337.0 725.5,336.6 728.1,335.8 730.8,336.5 733.4,336.7 736.0,336.9"/>
<polyline fill="none" stroke="#E69F00" stroke-width="2" stroke-linejoin="round" points="84.0,344.5 86.6,342.9 89.3,343.0 91.9,340.8 94.5,341.4 97.1,342.6 99.8,342.7 102.4,342.8 105.0,340.4 107.7,342.1 110.3,342.6 112.9,342.5 115.5,342.6 118.2,340.1 120.8,341.7 123.4,342.3 126.1,342.4 128.7,341.8 131.3,339.3 134.0,341.4 136.6,341.5 139.2,341.8 141.8,341.6 144.5,338.1 147.1,340.6 149.7,341.4 152.4,340.6 155.0,340.5 157.6,336.4 160.2,340.4 162.9,340.9 165.5,340.5 168.1,340.0 170.8,335.2 173.4,340.0 176.0,340.4 178.6,340.1 181.3,339.9 183.9,334.2 186.5,339.8 189.2,339.7 191.8,339.9 194.4,339.3 197.0,332.8 199.7,338.0 202.3,339.2 204.9,338.4 207.6,338.9 210.2,330.9 212.8,337.6 215.5,337.5 218.1,337.7 220.7,337.7 223.3,330.6 226.0,337.4 228.6,337.6 231.2,337.5 233.9,337.5 236.5,328.8 239.1,336.9 241.7,337.4 244.4,337.1 247.0,337.3 249.6,328.4 252.3,336.5 254.9,336.2 257.5,337.1 260.1,337.2 262.8,327.2 265.4,336.1 268.0,335.9 270.7,334.2 273.3,335.4 275.9,326.3 278.5,335.3 281.2,335.4 283.8,335.1 286.4,335.8 289.1,324.0 291.7,335.2 294.3,335.6 297.0,335.9 299.6,335.6 302.2,324.8 304.8,334.6 307.5,333.9 310.1,335.4 312.7,335.4 315.4,325.0 318.0,334.9 320.6,334.5 323.2,334.8 325.9,333.0 328.5,321.6 331.1,333.1 333.8,334.2 336.4,333.0 339.0,333.8 341.6,321.5 344.3,331.8 346.9,331.7 349.5,333.2 352.2,333.9 354.8,321.7 357.4,333.5 360.0,332.1 362.7,333.7 365.3,331.6 367.9,320.1 370.6,331.7 373.2,332.0 375.8,332.4 378.5,330.8 381.1,320.3 383.7,332.2 386.3,331.8 389.0,331.1 391.6,330.5 394.2,319.4 396.9,331.3 399.5,331.0 402.1,331.3 404.7,331.6 407.4,318.4 410.0,328.1 412.6,331.6 415.3,331.4 417.9,330.7 420.5,315.6 423.1,328.9 425.8,330.8 428.4,330.6 431.0,325.1 433.7,317.5 436.3,330.1 438.9,331.1 441.5,328.9 444.2,329.4 446.8,316.8 449.4,329.1 452.1,323.4 454.7,329.3 457.3,329.9 460.0,318.8 462.6,328.8 465.2,330.3 467.8,330.3 470.5,330.4 473.1,306.0 475.7,330.3 478.4,330.6 481.0,327.9 483.6,328.9 486.2,318.0 488.9,328.4 491.5,329.3 494.1,315.7 496.8,331.0 499.4,317.9 502.0,330.6 504.6,328.9 507.3,331.7 509.9,331.8 512.5,318.5 515.2,314.3 517.8,329.8 520.4,330.5 523.0,329.6 525.7,316.1 528.3,329.8 530.9,326.1 533.6,330.5 536.2,318.1 538.8,317.8 541.5,329.8 544.1,330.3 546.7,328.5 549.3,331.6 552.0,318.2 554.6,331.1 557.2,317.0 559.9,330.2 562.5,330.5 565.1,317.3 567.7,329.5 570.4,330.4 573.0,330.7 575.6,329.9 578.3,300.6 580.9,327.3 583.5,330.4 586.1,330.6 588.8,327.3 591.4,317.0 594.0,330.6 596.7,330.1 599.3,307.7 601.9,330.5 604.5,316.9 607.2,329.7 609.8,326.8 612.4,330.6 615.1,330.7 617.7,317.5 620.3,302.3 623.0,330.8 625.6,330.8 628.2,330.7 630.8,308.8 633.5,330.6 636.1,331.3 638.7,331.5 641.4,316.1 644.0,315.2 646.6,330.5 649.2,330.7 651.9,325.9 654.5,331.0 657.1,318.3 659.8,329.6 662.4,315.7 665.0,331.0 667.6,331.0 670.3,318.5 672.9,327.6 675.5,330.9 678.2,331.4 680.8,328.3 683.4,291.0 686.0,331.1 688.7,330.8 691.3,328.7 693.9,326.6 696.6,315.1 699.2,329.5 701.8,330.6 704.5,327.8 707.1,330.4 709.7,319.1 712.3,329.5 715.0,324.0 717.6,330.6 720.2,330.6 722.9,319.0 725.5,323.1 728.1,329.7 730.7,326.9 733.4,330.7 736.0,313.0"/>
<polyline fill="none" stroke="#B03A48" stroke-width="2" stroke-linejoin="round" points="84.0,340.1 86.6,342.2 89.2,343.5 91.9,343.7 94.5,343.7 97.1,344.4 99.7,344.1 102.3,344.8 104.9,344.8 107.6,344.3 110.2,344.6 112.8,344.0 115.4,345.0 118.0,344.9 120.7,344.9 123.3,343.8 125.9,343.9 128.5,344.7 131.1,344.4 133.8,344.3 136.4,344.3 139.0,344.5 141.6,344.4 144.2,343.9 146.8,343.8 149.5,344.3 152.1,344.6 154.7,344.3 157.3,344.2 159.9,344.4 162.6,344.6 165.2,344.2 167.8,343.9 170.4,343.5 173.0,344.1 175.6,343.7 178.3,343.1 180.9,343.6 183.5,343.9 186.1,342.0 188.7,342.7 191.4,344.1 194.0,343.8 196.6,341.9 199.2,343.2 201.8,343.3 204.4,341.8 207.1,342.0 209.7,342.2 212.3,343.3 214.9,342.0 217.5,341.6 220.2,342.7 222.8,343.4 225.4,342.2 228.0,342.6 230.6,344.1 233.3,343.0 235.9,340.6 238.5,343.8 241.1,342.5 243.7,341.6 246.3,341.9 249.0,341.4 251.6,342.6 254.2,342.6 256.8,343.6 259.4,342.7 262.1,343.7 264.7,343.4 267.3,341.2 269.9,341.8 272.5,343.1 275.1,342.3 277.8,338.0 280.4,340.7 283.0,341.6 285.6,340.2 288.2,340.9 290.9,340.4 293.5,341.8 296.1,341.9 298.7,342.4 301.3,342.8 304.0,342.3 306.6,340.3 309.2,340.8 311.8,336.7 314.4,341.4 317.0,340.8 319.7,336.7 322.3,340.2 324.9,336.3 327.5,339.2 330.1,338.3 332.8,340.2 335.4,336.2 338.0,335.7 340.6,335.1 343.2,334.8 345.8,337.2 348.5,336.8 351.1,337.7 353.7,336.6 356.3,338.7 358.9,339.6 361.6,338.9 364.2,339.6 366.8,337.3 369.4,338.1 372.0,341.7 374.7,337.4 377.3,335.3 379.9,334.9 382.5,332.4 385.1,330.8 387.7,335.7 390.4,338.6 393.0,336.1 395.6,331.9 398.2,336.3 400.8,331.1 403.5,330.3 406.1,336.4 408.7,337.4 411.3,334.6 413.9,333.7 416.5,335.8 419.2,335.1 421.8,332.1 424.4,331.5 427.0,334.4 429.6,328.6 432.3,328.9 434.9,334.6 437.5,328.7 440.1,335.2 442.7,333.6 445.3,336.7 448.0,333.5 450.6,326.1 453.2,328.2 455.8,328.7 458.4,319.6 461.1,327.8 463.7,325.6 466.3,330.4 468.9,329.7 471.5,330.9 474.2,317.9 476.8,327.6 479.4,326.2 482.0,319.3 484.6,332.6 487.2,331.7 489.9,325.4 492.5,329.4 495.1,325.1 497.7,329.6 500.3,315.3 503.0,328.5 505.6,321.7 508.2,330.4 510.8,331.7 513.4,322.8 516.0,324.0 518.7,322.3 521.3,318.1 523.9,316.6 526.5,327.1 529.1,322.9 531.8,322.6 534.4,319.5 537.0,326.2 539.6,321.0 542.2,320.8 544.9,319.8 547.5,318.3 550.1,322.4 552.7,329.3 555.3,320.6 557.9,317.6 560.6,323.7 563.2,322.1 565.8,320.9 568.4,316.1 571.0,312.1 573.7,318.0 576.3,321.6 578.9,320.8 581.5,324.7 584.1,317.2 586.7,313.7 589.4,303.8 592.0,317.4 594.6,321.7 597.2,312.9 599.8,310.9 602.5,318.5 605.1,317.9 607.7,322.0 610.3,313.7 612.9,313.4 615.6,313.0 618.2,310.5 620.8,311.1 623.4,318.3 626.0,317.5 628.6,317.8 631.3,321.5 633.9,319.5 636.5,316.1 639.1,308.0 641.7,317.5 644.4,319.5 647.0,315.6 649.6,312.5 652.2,312.5 654.8,314.5 657.4,305.7 660.1,313.4 662.7,309.5 665.3,313.1 667.9,303.2 670.5,313.4 673.2,305.3 675.8,306.3 678.4,311.4 681.0,305.1 683.6,301.1 686.2,303.6 688.9,299.7 691.5,302.1 694.1,302.0 696.7,293.5 699.3,299.9 702.0,298.5 704.6,298.8 707.2,302.5 709.8,308.4 712.4,301.9 715.1,287.2 717.7,309.4 720.3,290.0 722.9,288.8 725.5,304.0 728.1,300.0 730.8,294.9 733.4,296.8 736.0,293.3"/>
<polyline fill="none" stroke="#8C6D1F" stroke-width="2" stroke-linejoin="round" points="84.0,319.0 86.6,317.3 89.2,316.8 91.9,316.6 94.5,315.1 97.1,314.2 99.7,314.0 102.3,313.0 104.9,312.3 107.6,312.9 110.2,312.8 112.8,308.3 115.4,309.7 118.0,310.4 120.7,307.4 123.3,308.0 125.9,307.4 128.5,306.7 131.1,306.4 133.8,306.2 136.4,306.1 139.0,306.3 141.6,305.4 144.2,301.8 146.8,303.8 149.5,303.7 152.1,303.8 154.7,303.2 157.3,302.6 159.9,303.5 162.6,303.1 165.2,302.5 167.8,302.9 170.4,302.0 173.0,301.3 175.6,300.9 178.3,300.2 180.9,300.7 183.5,300.4 186.1,300.8 188.7,300.2 191.4,299.2 194.0,298.9 196.6,297.9 199.2,297.5 201.8,297.2 204.4,296.2 207.1,295.7 209.7,295.8 212.3,294.0 214.9,292.9 217.5,293.3 220.2,291.6 222.8,290.0 225.4,290.4 228.0,289.0 230.6,287.4 233.3,288.6 235.9,287.3 238.5,286.6 241.1,286.2 243.7,285.6 246.3,284.2 249.0,283.3 251.6,282.9 254.2,283.3 256.8,280.9 259.4,280.7 262.1,280.5 264.7,279.5 267.3,279.0 269.9,277.5 272.5,277.8 275.1,275.6 277.8,276.5 280.4,275.0 283.0,274.8 285.6,273.5 288.2,267.5 290.9,270.8 293.5,271.4 296.1,271.4 298.7,270.8 301.3,268.8 304.0,268.6 306.6,268.5 309.2,266.2 311.8,265.1 314.4,266.0 317.0,265.3 319.7,263.0 322.3,262.2 324.9,263.2 327.5,261.4 330.1,259.8 332.8,259.7 335.4,257.3 338.0,257.8 340.6,255.2 343.2,256.9 345.8,254.8 348.5,253.3 351.1,254.3 353.7,250.2 356.3,251.6 358.9,250.0 361.6,242.7 364.2,225.2 366.8,240.3 369.4,241.7 372.0,225.9 374.7,236.5 377.3,241.6 379.9,241.7 382.5,241.2 385.1,238.6 387.7,238.7 390.4,237.0 393.0,235.8 395.6,236.4 398.2,232.5 400.8,228.2 403.5,228.4 406.1,230.5 408.7,229.1 411.3,227.7 413.9,227.2 416.5,224.6 419.2,224.2 421.8,224.7 424.4,223.8 427.0,224.7 429.6,222.6 432.3,217.3 434.9,220.7 437.5,217.7 440.1,215.0 442.7,214.2 445.3,213.2 448.0,212.0 450.6,213.6 453.2,210.9 455.8,210.2 458.4,211.0 461.1,207.0 463.7,203.9 466.3,209.3 468.9,208.1 471.5,197.0 474.2,205.2 476.8,200.9 479.4,199.3 482.0,198.6 484.6,197.3 487.2,198.9 489.9,194.8 492.5,195.6 495.1,194.6 497.7,192.2 500.3,191.5 503.0,191.5 505.6,180.6 508.2,186.2 510.8,182.8 513.4,173.5 516.0,178.8 518.7,179.1 521.3,179.9 523.9,174.0 526.5,174.3 529.1,171.3 531.8,174.3 534.4,170.2 537.0,169.8 539.6,170.2 542.2,166.4 544.9,166.0 547.5,163.7 550.1,162.1 552.7,156.8 555.3,160.4 557.9,156.9 560.6,163.2 563.2,160.0 565.8,164.5 568.4,161.0 571.0,159.4 573.7,159.5 576.3,152.7 578.9,155.3 581.5,153.6 584.1,153.2 586.7,151.2 589.4,151.0 592.0,150.1 594.6,148.0 597.2,143.1 599.8,149.9 602.5,149.8 605.1,144.0 607.7,141.7 610.3,141.1 612.9,144.5 615.6,141.1 618.2,142.2 620.8,136.5 623.4,140.8 626.0,139.4 628.6,133.7 631.3,136.8 633.9,135.7 636.5,136.3 639.1,131.6 641.7,131.2 644.4,131.3 647.0,130.9 649.6,128.2 652.2,129.4 654.8,120.3 657.4,124.2 660.1,121.7 662.7,120.4 665.3,115.1 667.9,117.9 670.5,118.4 673.2,119.7 675.8,117.2 678.4,114.9 681.0,106.0 683.6,115.5 686.2,108.5 688.9,109.9 691.5,107.9 694.1,107.9 696.7,103.0 699.3,104.0 702.0,103.2 704.6,103.8 707.2,96.4 709.8,100.9 712.4,92.2 715.1,89.4 717.7,95.2 720.3,95.1 722.9,94.5 725.5,92.6 728.1,90.3 730.8,85.2 733.4,89.0 736.0,84.4"/>
<rect x="84.0" y="400" width="14" height="4" fill="#56B4E9"/><text x="103.0" y="405" font-family="Helvetica Neue,Helvetica,Arial,DejaVu Sans,sans-serif" font-size="11.5" fill="#1F2328">Open Doctrines</text>
<rect x="213.2" y="400" width="14" height="4" fill="#0072B2"/><text x="232.2" y="405" font-family="Helvetica Neue,Helvetica,Arial,DejaVu Sans,sans-serif" font-size="11.5" fill="#1F2328">Unciv</text>
<rect x="287.1" y="400" width="14" height="4" fill="#CC79A7"/><text x="306.1" y="405" font-family="Helvetica Neue,Helvetica,Arial,DejaVu Sans,sans-serif" font-size="11.5" fill="#1F2328">Greater Diplomacy 5</text>
<rect x="445.0" y="400" width="14" height="4" fill="#E69F00"/><text x="464.0" y="405" font-family="Helvetica Neue,Helvetica,Arial,DejaVu Sans,sans-serif" font-size="11.5" fill="#1F2328">Freeciv</text>
<rect x="531.6" y="400" width="14" height="4" fill="#B03A48"/><text x="550.6" y="405" font-family="Helvetica Neue,Helvetica,Arial,DejaVu Sans,sans-serif" font-size="11.5" fill="#1F2328">FreeCol</text>
<rect x="619.4" y="400" width="14" height="4" fill="#8C6D1F"/><text x="638.4" y="405" font-family="Helvetica Neue,Helvetica,Arial,DejaVu Sans,sans-serif" font-size="11.5" fill="#1F2328">FreeOrion</text>
</svg>
